<svg data-v-423bf9ae="" xmlns="http://www.w3.org/2000/svg" viewBox="0 0 283.4485898653516 60" class="font"><!----><!----><!----><g data-v-423bf9ae="" id="24cf508c-dcff-457c-ac2b-36d9408203cd" fill="black" transform="matrix(5.352260581326856,0,0,5.352260581326856,1.459386844567831,-26.681020189355422)"><path d="M1.78 12.84L1.78 12.84L1.78 12.84Q2.32 12.63 2.86 12.33L2.86 12.33L2.86 12.33Q3.40 12.04 3.89 11.68L3.89 11.68L3.89 11.68Q4.38 11.33 4.79 10.92L4.79 10.92L4.79 10.92Q5.21 10.51 5.49 10.09L5.49 10.09L5.49 10.09Q5.82 9.59 6.03 9.02L6.03 9.02L6.03 9.02Q6.23 8.46 6.08 7.74L6.08 7.74L6.08 7.74Q5.92 7.03 5.66 6.54L5.66 6.54L5.66 6.54Q5.40 6.05 5.11 5.64L5.11 5.64L5.11 5.64Q4.75 5.18 4.21 5.12L4.21 5.12L4.21 5.12Q3.67 5.07 3.07 5.24L3.07 5.24L3.07 5.24Q2.46 5.42 1.86 5.75L1.86 5.75L1.86 5.75Q1.26 6.09 0.78 6.43L0.78 6.43L0.78 6.43Q0.70 6.48 0.62 7.02L0.62 7.02L0.62 7.02Q0.55 7.56 0.46 8.37L0.46 8.37L0.46 8.37Q0.38 9.18 0.29 10.14L0.29 10.14L0.29 10.14Q0.21 11.10 0.13 12.01L0.13 12.01L0.13 12.01Q0.04 12.91-0.05 13.63L-0.05 13.63L-0.05 13.63Q-0.14 14.35-0.24 14.67L-0.24 14.67L-0.24 14.67Q-0.31 15.04-0.23 15.26L-0.23 15.26L-0.23 15.26Q-0.15 15.48 0.01 15.63L0.01 15.63L0.01 15.63Q0.18 15.78 0.41 15.87L0.41 15.87L0.41 15.87Q0.64 15.96 0.88 16.06L0.88 16.06L0.88 16.06Q1.12 16.13 1.20 16.06L1.20 16.06L1.20 16.06Q1.29 15.99 1.34 15.76L1.34 15.76L1.34 15.76Q1.43 15.05 1.54 14.32L1.54 14.32L1.54 14.32Q1.65 13.59 1.78 12.84ZM2.18 10.43L2.18 10.43L2.18 10.43Q2.32 9.66 2.45 8.97L2.45 8.97L2.45 8.97Q2.58 8.27 2.72 7.64L2.72 7.64L2.72 7.64Q3.02 7.46 3.33 7.37L3.33 7.37L3.33 7.37Q3.63 7.28 3.86 7.27L3.86 7.27L3.86 7.27Q4.10 7.27 4.26 7.34L4.26 7.34L4.26 7.34Q4.41 7.41 4.44 7.55L4.44 7.55L4.44 7.55Q4.51 7.80 4.40 8.18L4.40 8.18L4.40 8.18Q4.28 8.55 4.00 8.96L4.00 8.96L4.00 8.96Q3.71 9.37 3.25 9.76L3.25 9.76L3.25 9.76Q2.80 10.15 2.18 10.43ZM7.24 5.84L7.24 5.84L6.17 13.93L6.17 13.93Q6.15 14.29 6.22 14.56L6.22 14.56L6.22 14.56Q6.30 14.83 6.45 15.02L6.45 15.02L6.45 15.02Q6.64 15.27 6.78 15.44L6.78 15.44L6.78 15.44Q6.92 15.60 7.07 15.75L7.07 15.75L7.07 15.75Q7.21 15.89 7.40 15.97L7.40 15.97L7.40 15.97Q7.59 16.04 7.97 15.90L7.97 15.90L7.97 15.90Q8.53 15.75 9.14 15.57L9.14 15.57L9.14 15.57Q9.76 15.39 10.35 15.22L10.35 15.22L10.35 15.22Q10.58 15.15 10.63 15.04L10.63 15.04L10.63 15.04Q10.68 14.94 10.63 14.66L10.63 14.66L10.63 14.66Q10.56 14.41 10.49 14.17L10.49 14.17L10.49 14.17Q10.42 13.93 10.30 13.66L10.30 13.66L10.30 13.66Q10.21 13.43 10.06 13.34L10.06 13.34L10.06 13.34Q9.91 13.26 9.67 13.29L9.67 13.29L9.67 13.29Q9.23 13.33 8.83 13.39L8.83 13.39L8.83 13.39Q8.44 13.45 8.02 13.57L8.02 13.57L8.02 13.57Q8.09 13.20 8.16 12.82L8.16 12.82L8.16 12.82Q8.23 12.43 8.30 12.03L8.30 12.03L8.30 12.03Q8.82 11.87 9.37 11.74L9.37 11.74L9.37 11.74Q9.93 11.61 10.46 11.47L10.46 11.47L10.46 11.47Q10.70 11.40 10.75 11.30L10.75 11.30L10.75 11.30Q10.81 11.20 10.74 10.91L10.74 10.91L10.74 10.91Q10.68 10.65 10.62 10.42L10.62 10.42L10.62 10.42Q10.56 10.18 10.44 9.93L10.44 9.93L10.44 9.93Q10.35 9.69 10.21 9.61L10.21 9.61L10.21 9.61Q10.07 9.53 9.83 9.55L9.83 9.55L9.83 9.55Q9.55 9.56 9.29 9.58L9.29 9.58L9.29 9.58Q9.03 9.60 8.76 9.66L8.76 9.66L8.76 9.66Q8.90 9.03 9.02 8.46L9.02 8.46L9.02 8.46Q9.13 7.88 9.24 7.36L9.24 7.36L9.24 7.36Q9.83 7.25 10.37 7.17L10.37 7.17L10.37 7.17Q10.91 7.08 11.40 7.01L11.40 7.01L11.40 7.01Q11.63 6.97 11.70 6.87L11.70 6.87L11.70 6.87Q11.76 6.76 11.72 6.47L11.72 6.47L11.72 6.47Q11.66 6.22 11.61 6.01L11.61 6.01L11.61 6.01Q11.56 5.80 11.45 5.53L11.45 5.53L11.45 5.53Q11.31 5.03 10.85 5.05L10.85 5.05L10.85 5.05Q9.87 5.11 8.91 5.35L8.91 5.35L8.91 5.35Q7.95 5.59 7.24 5.84ZM17.67 6.90L17.67 6.90L17.67 6.90Q17.92 6.87 17.96 6.78L17.96 6.78L17.96 6.78Q18.00 6.69 17.95 6.43L17.95 6.43L17.95 6.43Q17.88 6.15 17.76 5.85L17.76 5.85L17.76 5.85Q17.64 5.56 17.47 5.31L17.47 5.31L17.47 5.31Q17.39 5.17 17.27 5.10L17.27 5.10L17.27 5.10Q17.15 5.04 16.91 5.04L16.91 5.04L16.91 5.04Q16.44 5.07 15.83 5.12L15.83 5.12L15.83 5.12Q15.22 5.18 14.59 5.26L14.59 5.26L14.59 5.26Q13.96 5.35 13.35 5.46L13.35 5.46L13.35 5.46Q12.74 5.57 12.26 5.70L12.26 5.70L12.26 5.70Q12.11 5.75 12.05 5.84L12.05 5.84L12.05 5.84Q12.00 5.92 12.08 6.17L12.08 6.17L12.08 6.17Q12.17 6.41 12.30 6.78L12.30 6.78L12.30 6.78Q12.43 7.14 12.60 7.38L12.60 7.38L12.60 7.38Q12.75 7.62 12.89 7.67L12.89 7.67L12.89 7.67Q13.02 7.71 13.23 7.64L13.23 7.64L13.23 7.64Q13.38 7.59 13.62 7.55L13.62 7.55L13.62 7.55Q13.85 7.50 14.08 7.45L14.08 7.45L14.08 7.45Q13.94 8.25 13.80 9.23L13.80 9.23L13.80 9.23Q13.65 10.21 13.52 11.19L13.52 11.19L13.52 11.19Q13.40 12.17 13.30 13.08L13.30 13.08L13.30 13.08Q13.20 13.99 13.16 14.63L13.16 14.63L13.16 14.63Q13.08 15.16 13.30 15.41L13.30 15.41L13.30 15.41Q13.52 15.67 13.92 15.83L13.92 15.83L13.92 15.83Q14.11 15.92 14.27 15.99L14.27 15.99L14.27 15.99Q14.43 16.06 14.55 16.07L14.55 16.07L14.55 16.07Q14.67 16.09 14.74 16.02L14.74 16.02L14.74 16.02Q14.81 15.95 14.83 15.75L14.83 15.75L14.83 15.75Q14.95 14.76 15.11 13.65L15.11 13.65L15.11 13.65Q15.27 12.54 15.46 11.42L15.46 11.42L15.46 11.42Q15.64 10.29 15.82 9.19L15.82 9.19L15.82 9.19Q16.00 8.09 16.17 7.10L16.17 7.10L16.17 7.10Q16.58 7.04 16.96 6.99L16.96 6.99L16.96 6.99Q17.35 6.94 17.67 6.90ZM26.88 9.51L26.88 9.51L26.88 9.51Q26.91 9.31 26.93 9.03L26.93 9.03L26.93 9.03Q26.95 8.75 26.96 8.45L26.96 8.45L26.96 8.45Q26.96 8.15 26.96 7.84L26.96 7.84L26.96 7.84Q26.95 7.53 26.92 7.29L26.92 7.29L26.92 7.29Q26.87 6.85 26.73 6.49L26.73 6.49L26.73 6.49Q26.60 6.13 26.32 5.84L26.32 5.84L26.32 5.84Q26.03 5.52 25.59 5.30L25.59 5.30L25.59 5.30Q25.14 5.08 24.72 5.01L24.72 5.01L24.72 5.01Q24.43 4.96 24.07 5.01L24.07 5.01L24.07 5.01Q23.70 5.07 23.41 5.36L23.41 5.36L23.41 5.36Q22.93 5.82 22.54 6.50L22.54 6.50L22.54 6.50Q22.15 7.17 21.85 7.96L21.85 7.96L21.85 7.96Q21.56 8.75 21.37 9.60L21.37 9.60L21.37 9.60Q21.18 10.46 21.11 11.30L21.11 11.30L21.11 11.30Q21.04 12.14 21.11 12.90L21.11 12.90L21.11 12.90Q21.17 13.66 21.38 14.27L21.38 14.27L21.38 14.27Q21.49 14.66 21.71 14.99L21.71 14.99L21.71 14.99Q21.94 15.32 22.18 15.51L22.18 15.51L22.18 15.51Q22.82 15.96 23.56 16.10L23.56 16.10L23.56 16.10Q24.39 16.30 25.06 15.72L25.06 15.72L25.06 15.72Q25.56 15.26 25.98 14.42L25.98 14.42L25.98 14.42Q26.40 13.58 26.70 12.39L26.70 12.39L26.70 12.39Q26.77 12.04 26.75 11.82L26.75 11.82L26.75 11.82Q26.74 11.59 26.59 11.30L26.59 11.30L26.59 11.30Q26.50 11.14 26.40 10.96L26.40 10.96L26.40 10.96Q26.31 10.78 26.19 10.63L26.19 10.63L26.19 10.63Q26.04 10.39 25.85 10.32L25.85 10.32L25.85 10.32Q25.66 10.25 25.37 10.30L25.37 10.30L25.37 10.30Q25.12 10.36 24.77 10.42L24.77 10.42L24.77 10.42Q24.42 10.49 24.09 10.58L24.09 10.58L24.09 10.58Q23.76 10.65 23.55 10.74L23.55 10.74L23.55 10.74Q23.34 10.82 23.41 11.14L23.41 11.14L23.41 11.14Q23.56 11.86 23.86 12.17L23.86 12.17L23.86 12.17Q24.15 12.49 24.68 12.45L24.68 12.45L24.68 12.45Q24.54 12.88 24.38 13.27L24.38 13.27L24.38 13.27Q24.22 13.65 24.05 13.92L24.05 13.92L24.05 13.92Q23.87 14.18 23.70 14.31L23.70 14.31L23.70 14.31Q23.52 14.43 23.35 14.35L23.35 14.35L23.35 14.35Q23.16 14.25 23.06 13.85L23.06 13.85L23.06 13.85Q22.96 13.45 22.95 12.89L22.95 12.89L22.95 12.89Q22.93 12.32 23.01 11.66L23.01 11.66L23.01 11.66Q23.09 11.00 23.24 10.40L23.24 10.40L23.24 10.40Q23.41 9.67 23.64 9.02L23.64 9.02L23.64 9.02Q23.87 8.36 24.11 7.88L24.11 7.88L24.11 7.88Q24.35 7.39 24.58 7.13L24.58 7.13L24.58 7.13Q24.81 6.86 24.98 6.93L24.98 6.93L24.98 6.93Q25.06 6.96 25.10 7.11L25.10 7.11L25.10 7.11Q25.13 7.27 25.16 7.48L25.16 7.48L25.16 7.48Q25.17 7.59 25.18 7.71L25.18 7.71L25.18 7.71Q25.19 7.83 25.19 7.95L25.19 7.95L25.19 7.95Q25.19 8.08 25.19 8.19L25.19 8.19L25.19 8.19Q25.20 8.30 25.21 8.41L25.21 8.41L25.21 8.41Q25.27 9.02 25.56 9.39L25.56 9.39L25.56 9.39Q25.84 9.77 26.45 9.88L26.45 9.88L26.45 9.88Q26.67 9.91 26.75 9.83L26.75 9.83L26.75 9.83Q26.82 9.74 26.88 9.51ZM29.50 12.59L29.50 12.59L29.50 12.59Q29.74 13.01 30.02 13.43L30.02 13.43L30.02 13.43Q30.31 13.86 30.60 14.25L30.60 14.25L30.60 14.25Q30.90 14.64 31.18 14.98L31.18 14.98L31.18 14.98Q31.46 15.32 31.67 15.54L31.67 15.54L31.67 15.54Q31.99 15.83 32.24 15.87L32.24 15.87L32.24 15.87Q32.49 15.90 32.69 15.82L32.69 15.82L32.69 15.82Q32.86 15.78 32.98 15.74L32.98 15.74L32.98 15.74Q33.10 15.71 33.25 15.51L33.25 15.51L33.25 15.51Q33.39 15.36 33.40 15.22L33.40 15.22L33.40 15.22Q33.42 15.08 33.22 14.84L33.22 14.84L33.22 14.84Q32.98 14.56 32.72 14.20L32.72 14.20L32.72 14.20Q32.45 13.83 32.18 13.45L32.18 13.45L32.18 13.45Q31.91 13.06 31.65 12.67L31.65 12.67L31.65 12.67Q31.40 12.28 31.19 11.94L31.19 11.94L31.19 11.94Q32.17 11.31 32.86 10.59L32.86 10.59L32.86 10.59Q33.54 9.87 33.81 9.03L33.81 9.03L33.81 9.03Q33.99 8.54 33.84 7.74L33.84 7.74L33.84 7.74Q33.68 7.03 33.42 6.54L33.42 6.54L33.42 6.54Q33.17 6.05 32.87 5.64L32.87 5.64L32.87 5.64Q32.51 5.18 32.02 5.08L32.02 5.08L32.02 5.08Q31.54 4.97 31.01 5.10L31.01 5.10L31.01 5.10Q30.48 5.22 29.93 5.51L29.93 5.51L29.93 5.51Q29.37 5.80 28.87 6.10L28.87 6.10L28.87 6.10Q28.71 6.20 28.57 6.77L28.57 6.77L28.57 6.77Q28.43 7.34 28.29 8.16L28.29 8.16L28.29 8.16Q28.15 8.99 28.04 9.96L28.04 9.96L28.04 9.96Q27.92 10.93 27.82 11.85L27.82 11.85L27.82 11.85Q27.72 12.77 27.64 13.52L27.64 13.52L27.64 13.52Q27.57 14.28 27.52 14.67L27.52 14.67L27.52 14.67Q27.50 15.04 27.55 15.25L27.55 15.25L27.55 15.25Q27.61 15.47 27.78 15.62L27.78 15.62L27.78 15.62Q27.94 15.76 28.14 15.82L28.14 15.82L28.14 15.82Q28.34 15.88 28.57 15.97L28.57 15.97L28.57 15.97Q28.80 16.04 28.88 15.97L28.88 15.97L28.88 15.97Q28.97 15.90 29.01 15.68L29.01 15.68L29.01 15.68Q29.12 14.92 29.24 14.16L29.24 14.16L29.24 14.16Q29.36 13.40 29.50 12.59ZM30.48 7.60L30.48 7.60L30.48 7.60Q30.80 7.39 31.09 7.31L31.09 7.31L31.09 7.31Q31.39 7.22 31.63 7.22L31.63 7.22L31.63 7.22Q32.12 7.22 32.23 7.55L32.23 7.55L32.23 7.55Q32.28 7.74 32.15 8.11L32.15 8.11L32.15 8.11Q32.02 8.47 31.72 8.88L31.72 8.88L31.72 8.88Q31.42 9.28 30.95 9.69L30.95 9.69L30.95 9.69Q30.49 10.09 29.90 10.37L29.90 10.37L29.90 10.37Q30.07 9.58 30.21 8.88L30.21 8.88L30.21 8.88Q30.34 8.19 30.48 7.60ZM39.31 5.92L39.31 5.92L39.31 5.92Q39.03 5.63 38.60 5.43L38.60 5.43L38.60 5.43Q38.18 5.22 37.72 5.12L37.72 5.12L37.72 5.12Q37.37 5.05 36.97 5.20L36.97 5.20L36.97 5.20Q36.57 5.35 36.29 5.64L36.29 5.64L36.29 5.64Q35.62 6.38 35.17 7.48L35.17 7.48L35.17 7.48Q34.72 8.58 34.50 9.78L34.50 9.78L34.50 9.78Q34.29 10.98 34.31 12.15L34.31 12.15L34.31 12.15Q34.34 13.33 34.64 14.25L34.64 14.25L34.64 14.25Q34.76 14.64 35 14.95L35 14.95L35 14.95Q35.24 15.26 35.48 15.46L35.48 15.46L35.48 15.46Q35.78 15.69 36.16 15.81L36.16 15.81L36.16 15.81Q36.53 15.93 36.88 15.99L36.88 15.99L36.88 15.99Q37.41 16.07 37.82 15.93L37.82 15.93L37.82 15.93Q38.23 15.78 38.60 15.34L38.60 15.34L38.60 15.34Q39.12 14.63 39.45 13.64L39.45 13.64L39.45 13.64Q39.79 12.66 39.96 11.59L39.96 11.59L39.96 11.59Q40.14 10.51 40.15 9.46L40.15 9.46L40.15 9.46Q40.17 8.40 40.04 7.53L40.04 7.53L40.04 7.53Q39.96 7.04 39.80 6.65L39.80 6.65L39.80 6.65Q39.63 6.26 39.31 5.92ZM38.01 7.03L38.01 7.03L38.01 7.03Q38.18 7.10 38.26 7.52L38.26 7.52L38.26 7.52Q38.35 7.94 38.35 8.53L38.35 8.53L38.35 8.53Q38.36 9.11 38.30 9.79L38.30 9.79L38.30 9.79Q38.25 10.46 38.14 11.05L38.14 11.05L38.14 11.05Q38.01 11.79 37.83 12.42L37.83 12.42L37.83 12.42Q37.65 13.05 37.44 13.49L37.44 13.49L37.44 13.49Q37.24 13.93 37.02 14.14L37.02 14.14L37.02 14.14Q36.81 14.35 36.62 14.25L36.62 14.25L36.62 14.25Q36.41 14.15 36.32 13.75L36.32 13.75L36.32 13.75Q36.22 13.34 36.20 12.78L36.20 12.78L36.20 12.78Q36.19 12.21 36.25 11.55L36.25 11.55L36.25 11.55Q36.32 10.89 36.44 10.30L36.44 10.30L36.44 10.30Q36.57 9.73 36.76 9.11L36.76 9.11L36.76 9.11Q36.96 8.50 37.18 8.02L37.18 8.02L37.18 8.02Q37.39 7.53 37.62 7.25L37.62 7.25L37.62 7.25Q37.84 6.96 38.01 7.03ZM47.19 6.72L47.19 6.72L47.19 6.72Q47.33 6.23 47.15 5.94L47.15 5.94L47.15 5.94Q46.97 5.66 46.63 5.42L46.63 5.42L46.63 5.42Q46.48 5.29 46.33 5.19L46.33 5.19L46.33 5.19Q46.17 5.10 46.04 5.08L46.04 5.08L46.04 5.08Q45.91 5.05 45.80 5.12L45.80 5.12L45.80 5.12Q45.70 5.19 45.64 5.39L45.64 5.39L45.64 5.39Q45.15 7.14 44.62 9.07L44.62 9.07L44.62 9.07Q44.09 11.00 43.50 12.85L43.50 12.85L43.50 12.85Q43.41 11.91 43.34 11.00L43.34 11.00L43.34 11.00Q43.27 10.08 43.21 9.24L43.21 9.24L43.21 9.24Q43.15 8.40 43.10 7.68L43.10 7.68L43.10 7.68Q43.05 6.96 43.01 6.40L43.01 6.40L43.01 6.40Q42.94 5.68 42.42 5.43L42.42 5.43L42.42 5.43Q42.20 5.32 42 5.27L42 5.27L42 5.27Q41.80 5.22 41.57 5.22L41.57 5.22L41.57 5.22Q41.33 5.22 41.27 5.34L41.27 5.34L41.27 5.34Q41.22 5.46 41.22 5.75L41.22 5.75L41.22 5.75Q41.30 8.08 41.46 10.20L41.46 10.20L41.46 10.20Q41.62 12.32 41.87 14.11L41.87 14.11L41.87 14.11Q41.93 14.43 42.10 14.83L42.10 14.83L42.10 14.83Q42.27 15.23 42.60 15.47L42.60 15.47L42.60 15.47Q42.91 15.69 43.19 15.83L43.19 15.83L43.19 15.83Q43.47 15.97 43.79 16.11L43.79 16.11L43.79 16.11Q44.11 16.25 44.29 16.16L44.29 16.16L44.29 16.16Q44.46 16.07 44.60 15.72L44.60 15.72L44.60 15.72Q44.80 15.15 45.04 14.40L45.04 14.40L45.04 14.40Q45.28 13.65 45.53 12.82L45.53 12.82L45.53 12.82Q45.79 11.98 46.05 11.12L46.05 11.12L46.05 11.12Q46.30 10.25 46.52 9.44L46.52 9.44L46.52 9.44Q46.75 8.62 46.92 7.92L46.92 7.92L46.92 7.92Q47.10 7.22 47.19 6.72ZM48.19 5.84L48.19 5.84L47.12 13.93L47.12 13.93Q47.10 14.29 47.17 14.56L47.17 14.56L47.17 14.56Q47.25 14.83 47.40 15.02L47.40 15.02L47.40 15.02Q47.59 15.27 47.73 15.44L47.73 15.44L47.73 15.44Q47.87 15.60 48.02 15.75L48.02 15.75L48.02 15.75Q48.16 15.89 48.35 15.97L48.35 15.97L48.35 15.97Q48.54 16.04 48.92 15.90L48.92 15.90L48.92 15.90Q49.48 15.75 50.09 15.57L50.09 15.57L50.09 15.57Q50.71 15.39 51.30 15.22L51.30 15.22L51.30 15.22Q51.53 15.15 51.58 15.04L51.58 15.04L51.58 15.04Q51.63 14.94 51.58 14.66L51.58 14.66L51.58 14.66Q51.51 14.41 51.44 14.17L51.44 14.17L51.44 14.17Q51.37 13.93 51.25 13.66L51.25 13.66L51.25 13.66Q51.16 13.43 51.01 13.34L51.01 13.34L51.01 13.34Q50.86 13.26 50.62 13.29L50.62 13.29L50.62 13.29Q50.18 13.33 49.78 13.39L49.78 13.39L49.78 13.39Q49.39 13.45 48.97 13.57L48.97 13.57L48.97 13.57Q49.04 13.20 49.11 12.82L49.11 12.82L49.11 12.82Q49.18 12.43 49.25 12.03L49.25 12.03L49.25 12.03Q49.77 11.87 50.32 11.74L50.32 11.74L50.32 11.74Q50.88 11.61 51.41 11.47L51.41 11.47L51.41 11.47Q51.65 11.40 51.70 11.30L51.70 11.30L51.70 11.30Q51.76 11.20 51.69 10.91L51.69 10.91L51.69 10.91Q51.63 10.65 51.57 10.42L51.57 10.42L51.57 10.42Q51.51 10.18 51.39 9.93L51.39 9.93L51.39 9.93Q51.30 9.69 51.16 9.61L51.16 9.61L51.16 9.61Q51.02 9.53 50.78 9.55L50.78 9.55L50.78 9.55Q50.50 9.56 50.24 9.58L50.24 9.58L50.24 9.58Q49.98 9.60 49.71 9.66L49.71 9.66L49.71 9.66Q49.85 9.03 49.97 8.46L49.97 8.46L49.97 8.46Q50.08 7.88 50.19 7.36L50.19 7.36L50.19 7.36Q50.78 7.25 51.32 7.17L51.32 7.17L51.32 7.17Q51.86 7.08 52.35 7.01L52.35 7.01L52.35 7.01Q52.58 6.97 52.65 6.87L52.65 6.87L52.65 6.87Q52.71 6.76 52.67 6.47L52.67 6.47L52.67 6.47Q52.61 6.22 52.56 6.01L52.56 6.01L52.56 6.01Q52.51 5.80 52.40 5.53L52.40 5.53L52.40 5.53Q52.26 5.03 51.80 5.05L51.80 5.05L51.80 5.05Q50.82 5.11 49.86 5.35L49.86 5.35L49.86 5.35Q48.90 5.59 48.19 5.84Z"></path></g><!----><!----></svg>